<svg xmlns="http://www.w3.org/2000/svg" viewBox="0 0 269.87 119.59"><defs><style>.a{fill:#231f20;}</style></defs><rect class="a" x="58.51" y="4.08" width="6.99" height="50.51" rx="3.01" transform="translate(-4.7 45.31) rotate(-38.79)"/><rect class="a" x="52.21" y="12.93" width="6.99" height="42.93" rx="3.01" transform="translate(-9.26 42.48) rotate(-38.79)"/><rect class="a" x="45.91" y="26.85" width="6.99" height="25.22" rx="3.01" transform="translate(-13.82 39.65) rotate(-38.79)"/><rect class="a" x="182.62" y="25.84" width="50.51" height="6.99" rx="3.01" transform="translate(54.78 172.98) rotate(-51.21)"/><rect class="a" x="192.7" y="30.91" width="42.93" height="6.99" rx="3.01" transform="translate(53.18 179.78) rotate(-51.21)"/><rect class="a" x="207.86" y="35.97" width="25.22" height="6.99" rx="3.01" transform="translate(51.59 186.58) rotate(-51.21)"/><path class="a" d="M209.29,68.37c-2.88-.52-5-4.19-5-4.19-7.57-9.93-14.36-2.49-14.36-2.49,7.74.4,10,3.58,10,3.58-3-2.27-10.9-2.43-10.9-2.43C192.14,78,209.29,68.37,209.29,68.37Z" transform="translate(0 0)"/><path class="a" d="M218.75,81.93c-7.55-9.92-14.34-2.52-14.34-2.52,7.74.39,10,3.57,10,3.57-3-2.27-10.9-2.42-10.9-2.42,3.11,15.14,20.27,5.57,20.27,5.57C220.93,85.6,218.75,81.93,218.75,81.93Z" transform="translate(0 0)"/><path class="a" d="M177.35,76.25C172.6,94.91,197,93.52,197,93.52c-3-2.16-3.33-7.43-3.33-7.43C190.62,70.87,179,75.46,179,75.46c8.46,4.66,9.24,9.45,9.24,9.45C186.1,80.69,177.35,76.25,177.35,76.25Z" transform="translate(0 0)"/><path class="a" d="M161.93,38.69s5,5.73,10.93-1.69c0,0,1.68-2.75,3.88-3.1,0,0-12.87-7.55-15.49,3.9,0,0,6,0,8.32-1.67C169.57,36.15,167.82,38.53,161.93,38.69Z" transform="translate(0 0)"/><path class="a" d="M81.24,62.8s-7.89.16-10.9,2.43c0,0,2.24-3.18,10-3.58,0,0-6.79-7.4-14.35,2.53,0,0-2.12,3.67-5,4.19C60.93,68.37,78.12,78,81.24,62.8Z" transform="translate(0 0)"/><path class="a" d="M66.77,80.56s-7.89.15-10.9,2.42c0,0,2.24-3.18,10-3.57,0,0-6.79-7.4-14.35,2.52,0,0-2.13,3.67-5,4.2C46.5,86.13,63.65,95.69,66.77,80.56Z" transform="translate(0 0)"/><path class="a" d="M91.27,75.46S79.64,70.87,76.58,86.09c0,0-.39,5.27-3.33,7.43,0,0,24.42,1.39,19.67-17.27,0,0-8.76,4.47-10.89,8.66C82,84.91,82.81,80.12,91.27,75.46Z" transform="translate(0 0)"/><path class="a" d="M93.53,33.92c2.2.35,3.87,3.1,3.87,3.1,5.9,7.42,10.94,1.69,10.94,1.69-5.89-.18-7.65-2.56-7.65-2.56C103,37.83,109,37.82,109,37.82,106.4,26.37,93.53,33.92,93.53,33.92Z" transform="translate(0 0)"/><circle class="a" cx="136.27" cy="17.89" r="8"/><path class="a" d="M174.27,65a6.56,6.56,0,1,0-6.56-6.56h0A6.56,6.56,0,0,0,174.27,65Z" transform="translate(0 0)"/><path class="a" d="M98.53,52.06a6.56,6.56,0,1,0,6.56,6.56h0A6.56,6.56,0,0,0,98.53,52.06Z" transform="translate(0 0)"/><path class="a" d="M150,113.24a21.76,21.76,0,0,1-2-2.85,19.63,19.63,0,0,1-2.23-14.84,30.63,30.63,0,0,1,20.1-20.23s19.33-6.7,31.31,2.84c0,0-11.21-13.53-32.34-9.15,0,0,5.54-18.94-8.12-32.86,0,0,15.48,25.23-15.57,43.06V69.57s-1.3-47.57,33-54.49c0,0-23.31-2.73-37.72,21.55C122,12.35,98.72,15.08,98.72,15.08c34.3,6.92,33,54.49,33,54.49v9.64c-31-17.83-15.57-43.06-15.57-43.06C102.49,50.07,108,69,108,69c-21.14-4.38-32.35,9.15-32.35,9.15,12-9.54,31.31-2.84,31.31-2.84a30.6,30.6,0,0,1,20.11,20.23,19.64,19.64,0,0,1-2.24,14.84,21.18,21.18,0,0,1-1.78,2.55,26.26,26.26,0,0,1-2.25,2.35H152A27.91,27.91,0,0,1,150,113.24Z" transform="translate(0 0)"/><path class="a" d="M40.93,42.07l5.47,6.1c.79-.75,1.58-1.49,2.37-2.21L43.4,39.51C41.74,41.12,40.93,42.07,40.93,42.07Z" transform="translate(0 0)"/><path class="a" d="M63.39,23.3,69,30C125-8,174,11.91,201,30.1l4.88-5.85C144.93-18,92.13,3.78,63.39,23.3Z" transform="translate(0 0)"/><path class="a" d="M223.34,48.36l5.09-6.1-2.14-2-5,6C222.64,47.59,223.34,48.36,223.34,48.36Z" transform="translate(0 0)"/><rect class="a" y="111" width="269.87" height="8.59"/></svg>